<svg xmlns="http://www.w3.org/2000/svg" version="1.1" xmlns:xlink="http://www.w3.org/1999/xlink" width="512" height="512" x="0" y="0" viewBox="0 0 254000 254000" style="enable-background:new 0 0 512 512" xml:space="preserve" fill-rule="evenodd"><g><path d="M127000 254000C56871 254000 0 197129 0 127000S56871 0 127000 0s127000 56871 127000 127000-56871 127000-127000 127000zm0-209606c34742 0 62905 28163 62905 62905 0 34741-62905 102306-62905 102306s-62905-67565-62905-102306c0-34742 28163-62905 62905-62905zm0 37912c13172 0 23854 10682 23854 23855 0 13172-10682 23854-23854 23854s-23854-10682-23854-23854c0-13173 10682-23855 23854-23855z" fill="#000000" opacity="1" data-original="#000000"></path></g></svg>