<svg xmlns="http://www.w3.org/2000/svg" xmlns:xlink="http://www.w3.org/1999/xlink" width="119" zoomAndPan="magnify" viewBox="0 0 89.25 91.499997" height="122" preserveAspectRatio="xMidYMid meet" version="1.2"><defs><clipPath id="a92607636e"><path d="M 0 3 L 68 3 L 68 90.871094 L 0 90.871094 Z M 0 3 "/></clipPath></defs><g id="f73bc4816c"><g clip-rule="nonzero" clip-path="url(#a92607636e)"><path style=" stroke:none;fill-rule:nonzero;fill:#0097b2;fill-opacity:1;" d="M 67.8125 48.050781 C 67.5625 48.621094 67.308594 49.195312 67.054688 49.765625 C 66.179688 49.847656 65.175781 49.953125 64.226562 50.085938 C 61.742188 50.433594 58.613281 51.433594 52.394531 54.335938 C 46.179688 57.238281 40.890625 63.976562 36.695312 70.089844 C 32.496094 76.203125 28.351562 89.832031 24.984375 90.351562 C 21.613281 90.871094 18.867188 85.480469 17.574219 83.304688 C 16.277344 81.128906 13.066406 74.339844 11.613281 70.917969 C 10.164062 67.5 5.878906 55.304688 3.597656 47.289062 C 1.316406 39.273438 0.421875 31.535156 0.214844 21.515625 C 0.00390625 11.496094 5.53125 5.96875 10.230469 4.105469 C 10.292969 4.082031 10.355469 4.058594 10.421875 4.035156 C 12.851562 3.1875 17.101562 3.835938 22.074219 5.757812 C 26.972656 7.65625 32.582031 10.789062 37.851562 14.953125 C 37.851562 14.953125 28.765625 10.804688 22.445312 10.960938 C 16.121094 11.117188 11.71875 14.640625 9.4375 19.203125 C 7.15625 23.761719 6.640625 33.191406 7.46875 40.863281 C 8.296875 48.53125 11.613281 60.347656 13.6875 66.773438 C 15.757812 73.199219 19.4375 79.054688 21.769531 80.609375 C 24.101562 82.164062 25.5 79.832031 28.539062 73.265625 C 31.582031 66.703125 39.527344 59.242188 43.535156 55.992188 C 47.242188 52.988281 58.964844 48.769531 67.8125 48.050781 "/></g><path style=" stroke:none;fill-rule:nonzero;fill:#0097b2;fill-opacity:1;" d="M 9.953125 2.792969 C 13.339844 1.339844 21.492188 2.03125 29.300781 6.453125 C 37.109375 10.875 43.535156 14.675781 51.273438 12.535156 C 59.011719 10.394531 68.132812 7.488281 73.730469 10.53125 C 79.324219 13.570312 79.253906 21.722656 77.046875 30.015625 C 74.832031 38.304688 65.851562 59.3125 61.292969 65.875 C 56.730469 72.4375 55.28125 75.132812 55.28125 75.132812 C 85.199219 44.457031 88.308594 19.71875 87.167969 14.953125 C 86.027344 10.183594 84.714844 8.320312 82.367188 6.800781 C 80.015625 5.28125 74.003906 2.238281 65.714844 4.589844 C 57.421875 6.9375 54.242188 8.597656 52.035156 9.355469 C 49.820312 10.117188 44.191406 10.601562 41.152344 9.769531 C 38.109375 8.941406 28.058594 2.652344 22.597656 1.617188 C 14.464844 0.132812 9.953125 2.792969 9.953125 2.792969 "/></g></svg>