<svg xmlns="http://www.w3.org/2000/svg" xmlns:xlink="http://www.w3.org/1999/xlink" width="500" zoomAndPan="magnify" viewBox="0 0 375 125.249995" height="167" preserveAspectRatio="xMidYMid meet" version="1.2"><defs><clipPath id="8932bc8c54"><path d="M 15 0 L 362 0 L 362 124.503906 L 15 124.503906 Z M 15 0 "/></clipPath><clipPath id="32d6604a6a"><path d="M 22.28125 86 L 174 86 L 174 124.503906 L 22.28125 124.503906 Z M 22.28125 86 "/></clipPath><clipPath id="1e7f9937eb"><path d="M 22.28125 0 L 199 0 L 199 39 L 22.28125 39 Z M 22.28125 0 "/></clipPath><clipPath id="8369dc2953"><path d="M 167 86 L 322.691406 86 L 322.691406 124.503906 L 167 124.503906 Z M 167 86 "/></clipPath><clipPath id="1beaac44b5"><path d="M 170 0 L 322.691406 0 L 322.691406 39 L 170 39 Z M 170 0 "/></clipPath><clipPath id="c2f6b225b7"><rect x="0" width="347" y="0" height="125"/></clipPath></defs><g id="93d2fe9f6c"><g clip-rule="nonzero" clip-path="url(#8932bc8c54)"><g transform="matrix(1,0,0,1,15,0.000000000000008286)"><g clip-path="url(#c2f6b225b7)"><g clip-rule="nonzero" clip-path="url(#32d6604a6a)"><path style=" stroke:none;fill-rule:nonzero;fill:#0097b2;fill-opacity:1;" d="M 123.234375 89.703125 C 123.625 90.609375 124.023438 91.511719 124.417969 92.417969 C 125.59375 95.019531 126.628906 97.613281 127.917969 100.226562 L 131.449219 106.976562 L 131.441406 107.058594 L 131.898438 107.855469 C 133.28125 110.269531 134.6875 112.671875 136.304688 115.011719 C 137.113281 116.175781 138.007812 117.316406 138.90625 118.449219 C 139.90625 119.554688 140.859375 120.675781 142.125 121.671875 C 142.667969 122.191406 143.449219 122.644531 144.15625 123.101562 C 144.730469 123.527344 146.296875 124.082031 147.046875 124.21875 L 147.550781 124.277344 L 147.800781 124.300781 L 147.921875 124.316406 L 147.988281 124.324219 C 148.75 124.378906 148.210938 124.335938 148.386719 124.347656 L 148.402344 124.347656 L 148.441406 124.339844 L 149.6875 124.167969 C 150.507812 124.007812 151.355469 124.003906 152.117188 123.625 C 152.886719 123.296875 153.695312 123.046875 154.398438 122.625 L 156.410156 121.238281 L 158.082031 119.550781 C 158.589844 118.960938 159 118.308594 159.457031 117.695312 C 160.257812 116.398438 160.910156 115.046875 161.410156 113.523438 C 161.699219 112.765625 161.757812 112.191406 161.945312 111.507812 C 162.140625 110.652344 162.195312 110.136719 162.332031 109.433594 C 162.796875 106.804688 163.339844 104.21875 164.015625 101.6875 C 164.714844 99.175781 165.574219 96.675781 167.042969 94.578125 C 167.75 93.503906 168.671875 92.605469 169.746094 91.882812 C 170.839844 91.179688 172.125 90.835938 173.480469 90.664062 C 172.152344 90.613281 170.742188 90.730469 169.441406 91.289062 C 168.167969 91.863281 166.976562 92.695312 166.015625 93.730469 C 164.082031 95.816406 162.816406 98.359375 161.71875 100.886719 C 160.621094 103.429688 159.824219 106.050781 159.035156 108.644531 C 158.847656 109.246094 158.636719 110.054688 158.476562 110.484375 C 158.234375 111.078125 158.042969 111.835938 157.765625 112.296875 C 157.292969 113.28125 156.652344 114.304688 155.9375 115.222656 C 155.550781 115.648438 155.207031 116.117188 154.800781 116.503906 L 153.535156 117.574219 L 152.144531 118.347656 C 151.675781 118.578125 151.160156 118.644531 150.6875 118.820312 C 150.222656 119.042969 149.667969 118.933594 149.171875 119 L 148.539062 119.050781 L 148.3125 119.003906 L 147.820312 118.902344 C 147.453125 118.839844 147.589844 118.699219 147.453125 118.652344 C 147.394531 118.597656 147.296875 118.582031 147.066406 118.371094 C 146.683594 118.046875 146.289062 117.824219 145.902344 117.363281 C 145.117188 116.613281 144.375 115.640625 143.625 114.703125 C 142.925781 113.683594 142.214844 112.664062 141.5625 111.578125 C 140.257812 109.398438 139.09375 107.082031 137.949219 104.753906 L 137.957031 104.789062 L 137.863281 104.585938 L 134.554688 97.195312 C 133.449219 94.726562 132.488281 92.050781 131.453125 89.492188 C 131.058594 88.53125 130.6875 87.5625 130.3125 86.589844 L 22.398438 86.589844 Z M 123.234375 89.703125 "/></g><g clip-rule="nonzero" clip-path="url(#1e7f9937eb)"><path style=" stroke:none;fill-rule:nonzero;fill:#ffffff;fill-opacity:1;" d="M 22.398438 38.203125 L 119.664062 38.203125 L 120.09375 34.710938 L 120.867188 30.910156 L 121.949219 27.210938 C 122.84375 24.820312 123.78125 22.425781 125.039062 20.238281 C 126.273438 18.066406 127.710938 15.917969 129.332031 14.34375 C 130.320312 13.414062 131.371094 12.234375 132.300781 11.511719 C 133.257812 10.859375 134.039062 9.980469 135.117188 9.457031 L 136.636719 8.542969 C 137.15625 8.308594 137.679688 8.128906 138.203125 7.90625 C 138.714844 7.640625 139.238281 7.515625 139.765625 7.410156 C 140.289062 7.292969 140.816406 7.09375 141.339844 7.121094 C 143.441406 6.878906 145.566406 7.335938 147.578125 8.417969 C 149.625 9.542969 151.363281 11.003906 153.078125 13.164062 L 152.9375 12.980469 L 155.066406 15.507812 C 155.792969 16.335938 156.457031 17.195312 157.226562 17.984375 L 159.695312 20.230469 C 160.503906 20.980469 161.320312 21.722656 162.296875 22.308594 L 165.085938 24.164062 C 166.074219 24.695312 167.121094 25.140625 168.140625 25.601562 C 169.136719 26.117188 170.238281 26.390625 171.332031 26.664062 C 172.417969 26.945312 173.488281 27.273438 174.613281 27.316406 C 175.730469 27.378906 176.824219 27.625 177.9375 27.523438 C 179.042969 27.445312 180.148438 27.460938 181.230469 27.289062 C 182.308594 27.082031 183.382812 26.898438 184.429688 26.625 C 185.457031 26.277344 186.496094 25.984375 187.492188 25.597656 C 189.46875 24.765625 191.394531 23.855469 193.152344 22.667969 C 194.925781 21.535156 196.582031 20.230469 198.085938 18.789062 C 194.644531 21.128906 190.789062 22.738281 186.902344 23.75 C 185.925781 23.980469 184.925781 24.113281 183.953125 24.304688 C 182.96875 24.421875 181.972656 24.429688 181 24.519531 C 180.019531 24.5625 179.039062 24.425781 178.074219 24.390625 C 177.101562 24.382812 176.171875 24.035156 175.230469 23.878906 C 174.273438 23.75 173.394531 23.34375 172.503906 23.003906 C 171.609375 22.667969 170.71875 22.351562 169.921875 21.796875 C 169.105469 21.292969 168.257812 20.875 167.46875 20.351562 L 165.234375 18.539062 C 164.453125 17.992188 163.800781 17.273438 163.152344 16.542969 L 161.191406 14.417969 C 160.578125 13.664062 160.046875 12.820312 159.476562 12.03125 L 157.78125 9.648438 L 157.644531 9.464844 C 156.019531 7.105469 153.617188 4.605469 150.820312 2.871094 C 148.011719 1.085938 144.46875 0.0078125 140.953125 0.164062 C 137.476562 0.328125 134.078125 1.394531 131.359375 3.089844 C 129.878906 3.785156 128.636719 4.929688 127.28125 5.867188 C 125.984375 6.855469 125.132812 7.769531 124.035156 8.726562 C 121.546875 11 119.746094 13.53125 118.101562 16.164062 C 116.425781 18.785156 115.242188 21.628906 114.15625 24.488281 C 113.683594 25.9375 113.234375 27.398438 112.816406 28.863281 C 112.488281 30.34375 112.132812 31.824219 111.847656 33.3125 L 111.605469 35.089844 Z M 22.398438 38.203125 "/></g><g clip-rule="nonzero" clip-path="url(#8369dc2953)"><path style=" stroke:none;fill-rule:nonzero;fill:#ffffff;fill-opacity:1;" d="M 322.601562 86.585938 L 214.261719 86.585938 C 212.492188 91.480469 210.6875 96.34375 208.589844 101.035156 C 207.332031 103.894531 205.9375 106.679688 204.496094 109.382812 C 203.042969 112.054688 201.414062 114.65625 199.574219 116.664062 C 198.6875 117.648438 197.621094 118.464844 197.007812 118.679688 C 196.890625 118.730469 196.730469 118.753906 196.789062 118.769531 L 195.605469 118.75 C 195.367188 118.710938 195.136719 118.691406 194.890625 118.671875 L 194.03125 118.472656 C 191.769531 117.820312 189.691406 115.917969 188.273438 113.503906 C 187.542969 112.253906 187.046875 111.085938 186.625 109.554688 L 185.328125 104.910156 C 184.449219 101.800781 183.578125 98.652344 182.34375 95.570312 C 181.070312 92.582031 179.613281 89.269531 176.515625 87.34375 C 175.835938 86.941406 175.09375 86.714844 174.335938 86.589844 L 172.148438 86.589844 C 171.917969 86.628906 171.679688 86.648438 171.460938 86.707031 C 169.820312 87.09375 168.382812 87.90625 167.050781 88.796875 C 169.847656 87.375 173.445312 86.585938 175.761719 88.503906 C 178.050781 90.320312 179.097656 93.429688 179.933594 96.386719 C 180.75 99.40625 181.335938 102.535156 181.882812 105.691406 L 182.710938 110.457031 C 182.964844 112.0625 183.457031 113.988281 184.230469 115.582031 C 185.734375 118.84375 188.28125 122.027344 192.113281 123.640625 L 193.558594 124.148438 C 194.09375 124.28125 194.660156 124.394531 195.214844 124.496094 L 196.441406 124.632812 C 197.304688 124.683594 197.941406 124.578125 198.601562 124.425781 C 201.097656 123.714844 202.597656 122.402344 203.996094 121.164062 C 206.699219 118.605469 208.679688 115.808594 210.519531 112.976562 C 212.359375 110.144531 213.90625 107.199219 215.390625 104.25 C 217.738281 99.460938 219.890625 94.617188 221.824219 89.710938 Z M 322.601562 86.585938 "/></g><g clip-rule="nonzero" clip-path="url(#1beaac44b5)"><path style=" stroke:none;fill-rule:nonzero;fill:#0097b2;fill-opacity:1;" d="M 233.402344 35.085938 C 232.980469 32.515625 232.363281 29.917969 231.554688 27.578125 L 231.449219 27.261719 C 230.636719 25.363281 229.824219 23.464844 228.894531 21.605469 C 227.980469 19.742188 227.015625 17.886719 225.894531 16.097656 C 225.363281 15.191406 224.742188 14.324219 224.144531 13.445312 C 223.566406 12.5625 222.855469 11.730469 222.21875 10.878906 C 220.832031 9.222656 219.386719 7.59375 217.671875 6.164062 C 214.359375 3.273438 209.972656 0.988281 205.234375 0.824219 C 202.898438 0.699219 200.582031 1.089844 198.449219 1.820312 C 197.382812 2.199219 196.359375 2.652344 195.378906 3.191406 C 194.417969 3.710938 193.4375 4.375 192.640625 5.046875 L 192.496094 5.160156 C 190.90625 6.652344 189.324219 8.164062 187.664062 9.578125 C 186.015625 11.003906 184.308594 12.355469 182.570312 13.664062 C 181.695312 14.304688 180.800781 14.925781 179.882812 15.507812 C 178.96875 16.097656 178.023438 16.617188 177.0625 17.125 C 176.089844 17.601562 175.097656 18.058594 174.054688 18.351562 C 173.023438 18.644531 171.914062 18.882812 170.835938 18.59375 C 171.851562 19.085938 173.054688 19.0625 174.171875 18.960938 C 175.308594 18.855469 176.417969 18.582031 177.515625 18.273438 C 179.703125 17.617188 181.75 16.625 183.773438 15.605469 C 187.792969 13.507812 191.496094 10.910156 195.125 8.242188 L 194.980469 8.351562 C 195.773438 7.839844 196.507812 7.492188 197.328125 7.132812 C 198.132812 6.792969 198.957031 6.527344 199.789062 6.324219 C 201.457031 5.9375 203.148438 5.839844 204.765625 6.101562 C 208.011719 6.585938 210.941406 8.378906 213.421875 10.835938 C 214.6875 12.039062 215.785156 13.484375 216.84375 14.945312 C 217.332031 15.722656 217.878906 16.441406 218.324219 17.257812 C 218.785156 18.0625 219.273438 18.839844 219.683594 19.683594 C 220.5625 21.316406 221.390625 23.011719 222.136719 24.746094 C 222.882812 26.414062 223.53125 28.144531 224.183594 29.871094 C 225.011719 32.703125 225.414062 35.351562 225.636719 38.203125 L 322.597656 38.203125 Z M 233.402344 35.085938 "/></g><g style="fill:#ffffff;fill-opacity:1;"><g transform="translate(1.5678, 69.486)"><path style="stroke:none" d="M 9.9375 -18.03125 C 11.53125 -18.03125 12.914062 -17.757812 14.09375 -17.21875 C 15.269531 -16.6875 16.175781 -15.929688 16.8125 -14.953125 C 17.445312 -13.984375 17.765625 -12.828125 17.765625 -11.484375 C 17.765625 -10.160156 17.445312 -9.003906 16.8125 -8.015625 C 16.175781 -7.035156 15.269531 -6.28125 14.09375 -5.75 C 12.914062 -5.226562 11.53125 -4.96875 9.9375 -4.96875 L 6.3125 -4.96875 L 6.3125 0 L 2.140625 0 L 2.140625 -18.03125 Z M 9.703125 -8.375 C 10.960938 -8.375 11.914062 -8.640625 12.5625 -9.171875 C 13.21875 -9.710938 13.546875 -10.484375 13.546875 -11.484375 C 13.546875 -12.492188 13.21875 -13.269531 12.5625 -13.8125 C 11.914062 -14.351562 10.960938 -14.625 9.703125 -14.625 L 6.3125 -14.625 L 6.3125 -8.375 Z M 9.703125 -8.375 "/></g></g><g style="fill:#ffffff;fill-opacity:1;"><g transform="translate(23.010184, 69.486)"><path style="stroke:none" d="M 13.625 0 L 10.140625 -5.015625 L 6.3125 -5.015625 L 6.3125 0 L 2.140625 0 L 2.140625 -18.03125 L 9.9375 -18.03125 C 11.53125 -18.03125 12.914062 -17.757812 14.09375 -17.21875 C 15.269531 -16.6875 16.175781 -15.929688 16.8125 -14.953125 C 17.445312 -13.984375 17.765625 -12.828125 17.765625 -11.484375 C 17.765625 -10.140625 17.441406 -8.984375 16.796875 -8.015625 C 16.160156 -7.046875 15.25 -6.304688 14.0625 -5.796875 L 18.109375 0 Z M 13.546875 -11.484375 C 13.546875 -12.492188 13.21875 -13.269531 12.5625 -13.8125 C 11.914062 -14.351562 10.960938 -14.625 9.703125 -14.625 L 6.3125 -14.625 L 6.3125 -8.34375 L 9.703125 -8.34375 C 10.960938 -8.34375 11.914062 -8.613281 12.5625 -9.15625 C 13.21875 -9.707031 13.546875 -10.484375 13.546875 -11.484375 Z M 13.546875 -11.484375 "/></g></g><g style="fill:#ffffff;fill-opacity:1;"><g transform="translate(44.529788, 69.486)"><path style="stroke:none" d="M 10.859375 0.3125 C 8.992188 0.3125 7.304688 -0.0859375 5.796875 -0.890625 C 4.296875 -1.703125 3.117188 -2.816406 2.265625 -4.234375 C 1.421875 -5.648438 1 -7.242188 1 -9.015625 C 1 -10.785156 1.421875 -12.375 2.265625 -13.78125 C 3.117188 -15.195312 4.296875 -16.304688 5.796875 -17.109375 C 7.304688 -17.921875 8.992188 -18.328125 10.859375 -18.328125 C 12.734375 -18.328125 14.414062 -17.921875 15.90625 -17.109375 C 17.40625 -16.304688 18.582031 -15.195312 19.4375 -13.78125 C 20.300781 -12.375 20.734375 -10.785156 20.734375 -9.015625 C 20.734375 -7.242188 20.300781 -5.648438 19.4375 -4.234375 C 18.582031 -2.816406 17.40625 -1.703125 15.90625 -0.890625 C 14.414062 -0.0859375 12.734375 0.3125 10.859375 0.3125 Z M 10.859375 -3.25 C 11.929688 -3.25 12.894531 -3.492188 13.75 -3.984375 C 14.601562 -4.472656 15.273438 -5.15625 15.765625 -6.03125 C 16.253906 -6.90625 16.5 -7.898438 16.5 -9.015625 C 16.5 -10.128906 16.253906 -11.125 15.765625 -12 C 15.273438 -12.875 14.601562 -13.554688 13.75 -14.046875 C 12.894531 -14.535156 11.929688 -14.78125 10.859375 -14.78125 C 9.796875 -14.78125 8.832031 -14.535156 7.96875 -14.046875 C 7.113281 -13.554688 6.441406 -12.875 5.953125 -12 C 5.472656 -11.125 5.234375 -10.128906 5.234375 -9.015625 C 5.234375 -7.898438 5.472656 -6.90625 5.953125 -6.03125 C 6.441406 -5.15625 7.113281 -4.472656 7.96875 -3.984375 C 8.832031 -3.492188 9.796875 -3.25 10.859375 -3.25 Z M 10.859375 -3.25 "/></g></g><g style="fill:#ffffff;fill-opacity:1;"><g transform="translate(68.855046, 69.486)"><path style="stroke:none" d=""/></g></g><g style="fill:#ffffff;fill-opacity:1;"><g transform="translate(78.740188, 69.486)"><path style="stroke:none" d="M 2.140625 -18.03125 L 10.328125 -18.03125 C 12.285156 -18.03125 14.015625 -17.65625 15.515625 -16.90625 C 17.015625 -16.15625 18.179688 -15.101562 19.015625 -13.75 C 19.847656 -12.394531 20.265625 -10.816406 20.265625 -9.015625 C 20.265625 -7.210938 19.847656 -5.628906 19.015625 -4.265625 C 18.179688 -2.910156 17.015625 -1.859375 15.515625 -1.109375 C 14.015625 -0.367188 12.285156 0 10.328125 0 L 2.140625 0 Z M 10.125 -3.421875 C 11.925781 -3.421875 13.363281 -3.921875 14.4375 -4.921875 C 15.507812 -5.929688 16.046875 -7.296875 16.046875 -9.015625 C 16.046875 -10.734375 15.507812 -12.09375 14.4375 -13.09375 C 13.363281 -14.09375 11.925781 -14.59375 10.125 -14.59375 L 6.3125 -14.59375 L 6.3125 -3.421875 Z M 10.125 -3.421875 "/></g></g><g style="fill:#ffffff;fill-opacity:1;"><g transform="translate(102.602133, 69.486)"><path style="stroke:none" d="M 16.09375 -3.34375 L 16.09375 0 L 2.140625 0 L 2.140625 -18.03125 L 15.765625 -18.03125 L 15.765625 -14.671875 L 6.28125 -14.671875 L 6.28125 -10.765625 L 14.65625 -10.765625 L 14.65625 -7.515625 L 6.28125 -7.515625 L 6.28125 -3.34375 Z M 16.09375 -3.34375 "/></g></g><g style="fill:#ffffff;fill-opacity:1;"><g transform="translate(122.474378, 69.486)"><path style="stroke:none" d="M 18.671875 -18.03125 L 18.671875 0 L 15.25 0 L 6.25 -10.9375 L 6.25 0 L 2.140625 0 L 2.140625 -18.03125 L 5.59375 -18.03125 L 14.546875 -7.078125 L 14.546875 -18.03125 Z M 18.671875 -18.03125 "/></g></g><g style="fill:#ffffff;fill-opacity:1;"><g transform="translate(145.872996, 69.486)"><path style="stroke:none" d="M 5.875 -14.625 L 0.109375 -14.625 L 0.109375 -18.03125 L 15.8125 -18.03125 L 15.8125 -14.625 L 10.046875 -14.625 L 10.046875 0 L 5.875 0 Z M 5.875 -14.625 "/></g></g><g style="fill:#ffffff;fill-opacity:1;"><g transform="translate(164.381023, 69.486)"><path style="stroke:none" d="M 14.015625 -3.859375 L 5.640625 -3.859375 L 4.046875 0 L -0.234375 0 L 7.796875 -18.03125 L 11.921875 -18.03125 L 19.984375 0 L 15.609375 0 Z M 12.6875 -7.03125 L 9.84375 -13.9375 L 6.984375 -7.03125 Z M 12.6875 -7.03125 "/></g></g><g style="fill:#ffffff;fill-opacity:1;"><g transform="translate(186.698564, 69.486)"><path style="stroke:none" d="M 2.140625 -18.03125 L 6.3125 -18.03125 L 6.3125 -3.40625 L 15.34375 -3.40625 L 15.34375 0 L 2.140625 0 Z M 2.140625 -18.03125 "/></g></g><g style="fill:#ffffff;fill-opacity:1;"><g transform="translate(204.846233, 69.486)"><path style="stroke:none" d=""/></g></g><g style="fill:#ffffff;fill-opacity:1;"><g transform="translate(214.731375, 69.486)"><path style="stroke:none" d="M 15.375 -9.375 C 16.40625 -9.050781 17.210938 -8.503906 17.796875 -7.734375 C 18.378906 -6.972656 18.671875 -6.035156 18.671875 -4.921875 C 18.671875 -3.335938 18.054688 -2.117188 16.828125 -1.265625 C 15.597656 -0.421875 13.804688 0 11.453125 0 L 2.140625 0 L 2.140625 -18.03125 L 10.9375 -18.03125 C 13.132812 -18.03125 14.820312 -17.609375 16 -16.765625 C 17.175781 -15.921875 17.765625 -14.78125 17.765625 -13.34375 C 17.765625 -12.46875 17.550781 -11.6875 17.125 -11 C 16.707031 -10.3125 16.125 -9.769531 15.375 -9.375 Z M 6.28125 -14.890625 L 6.28125 -10.640625 L 10.421875 -10.640625 C 11.453125 -10.640625 12.234375 -10.816406 12.765625 -11.171875 C 13.296875 -11.535156 13.5625 -12.066406 13.5625 -12.765625 C 13.5625 -13.472656 13.296875 -14.003906 12.765625 -14.359375 C 12.234375 -14.710938 11.453125 -14.890625 10.421875 -14.890625 Z M 11.15625 -3.140625 C 12.25 -3.140625 13.070312 -3.316406 13.625 -3.671875 C 14.1875 -4.035156 14.46875 -4.597656 14.46875 -5.359375 C 14.46875 -6.847656 13.363281 -7.59375 11.15625 -7.59375 L 6.28125 -7.59375 L 6.28125 -3.140625 Z M 11.15625 -3.140625 "/></g></g><g style="fill:#ffffff;fill-opacity:1;"><g transform="translate(237.023194, 69.486)"><path style="stroke:none" d="M 13.625 0 L 10.140625 -5.015625 L 6.3125 -5.015625 L 6.3125 0 L 2.140625 0 L 2.140625 -18.03125 L 9.9375 -18.03125 C 11.53125 -18.03125 12.914062 -17.757812 14.09375 -17.21875 C 15.269531 -16.6875 16.175781 -15.929688 16.8125 -14.953125 C 17.445312 -13.984375 17.765625 -12.828125 17.765625 -11.484375 C 17.765625 -10.140625 17.441406 -8.984375 16.796875 -8.015625 C 16.160156 -7.046875 15.25 -6.304688 14.0625 -5.796875 L 18.109375 0 Z M 13.546875 -11.484375 C 13.546875 -12.492188 13.21875 -13.269531 12.5625 -13.8125 C 11.914062 -14.351562 10.960938 -14.625 9.703125 -14.625 L 6.3125 -14.625 L 6.3125 -8.34375 L 9.703125 -8.34375 C 10.960938 -8.34375 11.914062 -8.613281 12.5625 -9.15625 C 13.21875 -9.707031 13.546875 -10.484375 13.546875 -11.484375 Z M 13.546875 -11.484375 "/></g></g><g style="fill:#ffffff;fill-opacity:1;"><g transform="translate(258.542783, 69.486)"><path style="stroke:none" d="M 14.015625 -3.859375 L 5.640625 -3.859375 L 4.046875 0 L -0.234375 0 L 7.796875 -18.03125 L 11.921875 -18.03125 L 19.984375 0 L 15.609375 0 Z M 12.6875 -7.03125 L 9.84375 -13.9375 L 6.984375 -7.03125 Z M 12.6875 -7.03125 "/></g></g><g style="fill:#ffffff;fill-opacity:1;"><g transform="translate(280.860324, 69.486)"><path style="stroke:none" d="M 8.0625 0.3125 C 6.632812 0.3125 5.253906 0.117188 3.921875 -0.265625 C 2.597656 -0.648438 1.53125 -1.15625 0.71875 -1.78125 L 2.140625 -4.921875 C 2.910156 -4.347656 3.828125 -3.890625 4.890625 -3.546875 C 5.953125 -3.203125 7.015625 -3.03125 8.078125 -3.03125 C 9.265625 -3.03125 10.140625 -3.207031 10.703125 -3.5625 C 11.273438 -3.914062 11.5625 -4.382812 11.5625 -4.96875 C 11.5625 -5.394531 11.394531 -5.75 11.0625 -6.03125 C 10.726562 -6.320312 10.296875 -6.550781 9.765625 -6.71875 C 9.242188 -6.894531 8.535156 -7.082031 7.640625 -7.28125 C 6.273438 -7.613281 5.15625 -7.941406 4.28125 -8.265625 C 3.40625 -8.585938 2.648438 -9.109375 2.015625 -9.828125 C 1.390625 -10.554688 1.078125 -11.519531 1.078125 -12.71875 C 1.078125 -13.769531 1.359375 -14.71875 1.921875 -15.5625 C 2.492188 -16.414062 3.347656 -17.085938 4.484375 -17.578125 C 5.628906 -18.078125 7.023438 -18.328125 8.671875 -18.328125 C 9.828125 -18.328125 10.953125 -18.191406 12.046875 -17.921875 C 13.148438 -17.648438 14.113281 -17.253906 14.9375 -16.734375 L 13.640625 -13.5625 C 11.984375 -14.507812 10.320312 -14.984375 8.65625 -14.984375 C 7.488281 -14.984375 6.625 -14.796875 6.0625 -14.421875 C 5.507812 -14.046875 5.234375 -13.546875 5.234375 -12.921875 C 5.234375 -12.304688 5.550781 -11.847656 6.1875 -11.546875 C 6.832031 -11.242188 7.816406 -10.945312 9.140625 -10.65625 C 10.515625 -10.332031 11.640625 -10.003906 12.515625 -9.671875 C 13.390625 -9.347656 14.140625 -8.832031 14.765625 -8.125 C 15.390625 -7.425781 15.703125 -6.476562 15.703125 -5.28125 C 15.703125 -4.25 15.414062 -3.304688 14.84375 -2.453125 C 14.269531 -1.609375 13.40625 -0.9375 12.25 -0.4375 C 11.101562 0.0625 9.707031 0.3125 8.0625 0.3125 Z M 8.0625 0.3125 "/></g></g><g style="fill:#ffffff;fill-opacity:1;"><g transform="translate(299.883148, 69.486)"><path style="stroke:none" d="M 10.859375 0.3125 C 8.992188 0.3125 7.304688 -0.0859375 5.796875 -0.890625 C 4.296875 -1.703125 3.117188 -2.816406 2.265625 -4.234375 C 1.421875 -5.648438 1 -7.242188 1 -9.015625 C 1 -10.785156 1.421875 -12.375 2.265625 -13.78125 C 3.117188 -15.195312 4.296875 -16.304688 5.796875 -17.109375 C 7.304688 -17.921875 8.992188 -18.328125 10.859375 -18.328125 C 12.734375 -18.328125 14.414062 -17.921875 15.90625 -17.109375 C 17.40625 -16.304688 18.582031 -15.195312 19.4375 -13.78125 C 20.300781 -12.375 20.734375 -10.785156 20.734375 -9.015625 C 20.734375 -7.242188 20.300781 -5.648438 19.4375 -4.234375 C 18.582031 -2.816406 17.40625 -1.703125 15.90625 -0.890625 C 14.414062 -0.0859375 12.734375 0.3125 10.859375 0.3125 Z M 10.859375 -3.25 C 11.929688 -3.25 12.894531 -3.492188 13.75 -3.984375 C 14.601562 -4.472656 15.273438 -5.15625 15.765625 -6.03125 C 16.253906 -6.90625 16.5 -7.898438 16.5 -9.015625 C 16.5 -10.128906 16.253906 -11.125 15.765625 -12 C 15.273438 -12.875 14.601562 -13.554688 13.75 -14.046875 C 12.894531 -14.535156 11.929688 -14.78125 10.859375 -14.78125 C 9.796875 -14.78125 8.832031 -14.535156 7.96875 -14.046875 C 7.113281 -13.554688 6.441406 -12.875 5.953125 -12 C 5.472656 -11.125 5.234375 -10.128906 5.234375 -9.015625 C 5.234375 -7.898438 5.472656 -6.90625 5.953125 -6.03125 C 6.441406 -5.15625 7.113281 -4.472656 7.96875 -3.984375 C 8.832031 -3.492188 9.796875 -3.25 10.859375 -3.25 Z M 10.859375 -3.25 "/></g></g><g style="fill:#ffffff;fill-opacity:1;"><g transform="translate(324.208406, 69.486)"><path style="stroke:none" d="M 19.46875 -18.03125 L 11.671875 0 L 7.546875 0 L -0.234375 -18.03125 L 4.28125 -18.03125 L 9.765625 -5.15625 L 15.328125 -18.03125 Z M 19.46875 -18.03125 "/></g></g></g></g></g></g></svg>