<svg xmlns="http://www.w3.org/2000/svg" xmlns:xlink="http://www.w3.org/1999/xlink" width="500" zoomAndPan="magnify" viewBox="0 0 375 311.999988" height="416" preserveAspectRatio="xMidYMid meet" version="1.2"><defs><clipPath id="84c5c340c1"><path d="M 72.402344 65 L 247 65 L 247 168 L 72.402344 168 Z M 72.402344 65 "/></clipPath><clipPath id="1e9c227b84"><rect x="0" width="257" y="0" height="76"/></clipPath></defs><g id="1fb0385290"><path style=" stroke:none;fill-rule:evenodd;fill:#0d1164;fill-opacity:1;" d="M 201.355469 35.199219 C 157.066406 48.734375 142.007812 14.691406 113.570312 18.558594 C 93.179688 21.332031 85.679688 44.058594 84.710938 62.742188 C 83.851562 79.3125 88.042969 98.71875 95.074219 118.257812 C 101.230469 124.320312 108.371094 129.222656 116.640625 132.207031 C 108.328125 108.121094 103.046875 82.09375 106.371094 57.714844 C 108.886719 39.253906 119.613281 30.625 140.179688 38.414062 C 157.003906 44.78125 176.910156 56.289062 201.355469 35.199219 Z M 121.605469 173.109375 C 133.617188 192.867188 146.558594 209.351562 157.113281 218.476562 C 153.453125 209.910156 143.851562 193.597656 133.898438 173.164062 C 129.800781 173.5625 125.6875 173.574219 121.605469 173.109375 Z M 121.605469 173.109375 "/><path style=" stroke:none;fill-rule:evenodd;fill:#640d5f;fill-opacity:1;" d="M 134.140625 47.265625 C 198.992188 92.484375 224.566406 0.00390625 270.601562 30.152344 C 302.589844 51.105469 278.871094 139.097656 248.730469 198.734375 C 227.085938 241.5625 209.382812 244.355469 201.511719 196.296875 C 195.105469 157.1875 184.222656 148.5625 171.117188 197.484375 C 176.757812 117.492188 204.777344 150.097656 209.9375 182.71875 C 217.042969 227.617188 227.566406 217.507812 239.875 183.558594 C 256.949219 136.449219 275.03125 77.859375 263.355469 58.40625 C 236.582031 13.800781 198.121094 109.75 134.140625 47.265625 Z M 134.140625 47.265625 "/><g clip-rule="nonzero" clip-path="url(#84c5c340c1)"><path style=" stroke:none;fill-rule:evenodd;fill:#0d1164;fill-opacity:1;" d="M 72.511719 97.238281 C 92.023438 229.738281 208.820312 148.972656 246.800781 65.902344 C 187.878906 143.898438 113.011719 172.960938 72.511719 97.238281 Z M 72.511719 97.238281 "/></g><path style=" stroke:none;fill-rule:evenodd;fill:#0d1164;fill-opacity:1;" d="M 234.046875 62.230469 C 254.402344 45.914062 260.8125 57.484375 251.675781 79.394531 C 254.738281 61.867188 247.824219 55.519531 234.046875 62.230469 Z M 234.046875 62.230469 "/><g transform="matrix(1,0,0,1,59,236)"><g clip-path="url(#1e9c227b84)"><g style="fill:#4cb6c6;fill-opacity:0.4;"><g transform="translate(1.897189, 61.293119)"><path style="stroke:none" d="M 4.796875 0 L 4.796875 -39.921875 L 20.59375 -39.921875 C 24.8125 -39.921875 28.5 -39.082031 31.65625 -37.40625 C 34.8125 -35.738281 37.257812 -33.398438 39 -30.390625 C 40.75 -27.390625 41.625 -23.910156 41.625 -19.953125 C 41.625 -15.960938 40.75 -12.472656 39 -9.484375 C 37.257812 -6.503906 34.8125 -4.175781 31.65625 -2.5 C 28.5 -0.832031 24.8125 0 20.59375 0 Z M 13.859375 -8.328125 L 20.421875 -8.328125 C 22.773438 -8.328125 24.84375 -8.8125 26.625 -9.78125 C 28.414062 -10.75 29.816406 -12.109375 30.828125 -13.859375 C 31.835938 -15.609375 32.34375 -17.640625 32.34375 -19.953125 C 32.34375 -22.316406 31.835938 -24.363281 30.828125 -26.09375 C 29.816406 -27.820312 28.40625 -29.171875 26.59375 -30.140625 C 24.789062 -31.109375 22.691406 -31.59375 20.296875 -31.59375 L 13.859375 -31.59375 Z M 13.859375 -8.328125 "/></g></g><g style="fill:#4cb6c6;fill-opacity:0.4;"><g transform="translate(45.918098, 61.293119)"><path style="stroke:none" d="M 4.796875 0 L 4.796875 -39.921875 L 31.03125 -39.921875 L 31.03125 -32.28125 L 13.796875 -32.28125 L 13.796875 -24.015625 L 29.484375 -24.015625 L 29.484375 -16.421875 L 13.796875 -16.421875 L 13.796875 -7.703125 L 31.65625 -7.703125 L 31.65625 0 Z M 4.796875 0 "/></g></g><g style="fill:#4cb6c6;fill-opacity:0.4;"><g transform="translate(80.473374, 61.293119)"><path style="stroke:none" d="M 4.796875 0 L 4.796875 -39.921875 L 12.484375 -39.921875 L 30.109375 -15.625 L 30.109375 -39.921875 L 39.125 -39.921875 L 39.125 0 L 31.421875 0 L 13.796875 -24.46875 L 13.796875 0 Z M 4.796875 0 "/></g></g><g style="fill:#4cb6c6;fill-opacity:0.4;"><g transform="translate(124.380227, 61.293119)"><path style="stroke:none" d="M 14.375 0 L 14.375 -31.421875 L 1.703125 -31.421875 L 1.703125 -39.921875 L 36.09375 -39.921875 L 36.09375 -31.421875 L 23.4375 -31.421875 L 23.4375 0 Z M 14.375 0 "/></g></g><g style="fill:#4cb6c6;fill-opacity:0.4;"><g transform="translate(162.185749, 61.293119)"><path style="stroke:none" d="M 4.796875 0 L 4.796875 -39.921875 L 13.859375 -39.921875 L 13.859375 0 Z M 4.796875 0 "/></g></g><g style="fill:#4cb6c6;fill-opacity:0.4;"><g transform="translate(180.831913, 61.293119)"><path style="stroke:none" d="M 18.703125 0.796875 C 15.359375 0.796875 12.476562 0.242188 10.0625 -0.859375 C 7.644531 -1.960938 5.78125 -3.53125 4.46875 -5.5625 C 3.164062 -7.59375 2.515625 -9.976562 2.515625 -12.71875 L 11.40625 -12.71875 C 11.40625 -10.8125 12.0625 -9.328125 13.375 -8.265625 C 14.6875 -7.203125 16.445312 -6.671875 18.65625 -6.671875 C 20.550781 -6.671875 22.050781 -7.039062 23.15625 -7.78125 C 24.257812 -8.519531 24.8125 -9.554688 24.8125 -10.890625 C 24.8125 -12.296875 24.144531 -13.4375 22.8125 -14.3125 C 21.476562 -15.1875 19.40625 -15.925781 16.59375 -16.53125 C 11.914062 -17.519531 8.453125 -19.019531 6.203125 -21.03125 C 3.960938 -23.050781 2.84375 -25.679688 2.84375 -28.921875 C 2.84375 -32.566406 4.171875 -35.441406 6.828125 -37.546875 C 9.492188 -39.660156 13.128906 -40.71875 17.734375 -40.71875 C 20.890625 -40.71875 23.625 -40.175781 25.9375 -39.09375 C 28.257812 -38.007812 30.054688 -36.488281 31.328125 -34.53125 C 32.609375 -32.570312 33.25 -30.242188 33.25 -27.546875 L 24.515625 -27.546875 C 24.515625 -29.328125 23.925781 -30.734375 22.75 -31.765625 C 21.570312 -32.796875 19.9375 -33.3125 17.84375 -33.3125 C 15.945312 -33.3125 14.445312 -32.9375 13.34375 -32.1875 C 12.238281 -31.445312 11.6875 -30.410156 11.6875 -29.078125 C 11.6875 -27.867188 12.296875 -26.84375 13.515625 -26 C 14.734375 -25.164062 16.863281 -24.390625 19.90625 -23.671875 C 24.882812 -22.492188 28.472656 -20.914062 30.671875 -18.9375 C 32.878906 -16.957031 33.984375 -14.390625 33.984375 -11.234375 C 33.984375 -7.472656 32.625 -4.523438 29.90625 -2.390625 C 27.1875 -0.265625 23.453125 0.796875 18.703125 0.796875 Z M 18.703125 0.796875 "/></g></g><g style="fill:#4cb6c6;fill-opacity:0.4;"><g transform="translate(217.382955, 61.293119)"><path style="stroke:none" d="M 14.375 0 L 14.375 -31.421875 L 1.703125 -31.421875 L 1.703125 -39.921875 L 36.09375 -39.921875 L 36.09375 -31.421875 L 23.4375 -31.421875 L 23.4375 0 Z M 14.375 0 "/></g></g><g style="fill:#0d1164;fill-opacity:1;"><g transform="translate(1.897189, 61.293119)"><path style="stroke:none" d="M 4.796875 0 L 4.796875 -39.921875 L 20.59375 -39.921875 C 24.8125 -39.921875 28.5 -39.082031 31.65625 -37.40625 C 34.8125 -35.738281 37.257812 -33.398438 39 -30.390625 C 40.75 -27.390625 41.625 -23.910156 41.625 -19.953125 C 41.625 -15.960938 40.75 -12.472656 39 -9.484375 C 37.257812 -6.503906 34.8125 -4.175781 31.65625 -2.5 C 28.5 -0.832031 24.8125 0 20.59375 0 Z M 13.859375 -8.328125 L 20.421875 -8.328125 C 22.773438 -8.328125 24.84375 -8.8125 26.625 -9.78125 C 28.414062 -10.75 29.816406 -12.109375 30.828125 -13.859375 C 31.835938 -15.609375 32.34375 -17.640625 32.34375 -19.953125 C 32.34375 -22.316406 31.835938 -24.363281 30.828125 -26.09375 C 29.816406 -27.820312 28.40625 -29.171875 26.59375 -30.140625 C 24.789062 -31.109375 22.691406 -31.59375 20.296875 -31.59375 L 13.859375 -31.59375 Z M 13.859375 -8.328125 "/></g></g><g style="fill:#0d1164;fill-opacity:1;"><g transform="translate(45.918098, 61.293119)"><path style="stroke:none" d="M 4.796875 0 L 4.796875 -39.921875 L 31.03125 -39.921875 L 31.03125 -32.28125 L 13.796875 -32.28125 L 13.796875 -24.015625 L 29.484375 -24.015625 L 29.484375 -16.421875 L 13.796875 -16.421875 L 13.796875 -7.703125 L 31.65625 -7.703125 L 31.65625 0 Z M 4.796875 0 "/></g></g><g style="fill:#0d1164;fill-opacity:1;"><g transform="translate(80.473374, 61.293119)"><path style="stroke:none" d="M 4.796875 0 L 4.796875 -39.921875 L 12.484375 -39.921875 L 30.109375 -15.625 L 30.109375 -39.921875 L 39.125 -39.921875 L 39.125 0 L 31.421875 0 L 13.796875 -24.46875 L 13.796875 0 Z M 4.796875 0 "/></g></g><g style="fill:#0d1164;fill-opacity:1;"><g transform="translate(124.380227, 61.293119)"><path style="stroke:none" d="M 14.375 0 L 14.375 -31.421875 L 1.703125 -31.421875 L 1.703125 -39.921875 L 36.09375 -39.921875 L 36.09375 -31.421875 L 23.4375 -31.421875 L 23.4375 0 Z M 14.375 0 "/></g></g><g style="fill:#0d1164;fill-opacity:1;"><g transform="translate(162.185749, 61.293119)"><path style="stroke:none" d="M 4.796875 0 L 4.796875 -39.921875 L 13.859375 -39.921875 L 13.859375 0 Z M 4.796875 0 "/></g></g><g style="fill:#0d1164;fill-opacity:1;"><g transform="translate(180.831913, 61.293119)"><path style="stroke:none" d="M 18.703125 0.796875 C 15.359375 0.796875 12.476562 0.242188 10.0625 -0.859375 C 7.644531 -1.960938 5.78125 -3.53125 4.46875 -5.5625 C 3.164062 -7.59375 2.515625 -9.976562 2.515625 -12.71875 L 11.40625 -12.71875 C 11.40625 -10.8125 12.0625 -9.328125 13.375 -8.265625 C 14.6875 -7.203125 16.445312 -6.671875 18.65625 -6.671875 C 20.550781 -6.671875 22.050781 -7.039062 23.15625 -7.78125 C 24.257812 -8.519531 24.8125 -9.554688 24.8125 -10.890625 C 24.8125 -12.296875 24.144531 -13.4375 22.8125 -14.3125 C 21.476562 -15.1875 19.40625 -15.925781 16.59375 -16.53125 C 11.914062 -17.519531 8.453125 -19.019531 6.203125 -21.03125 C 3.960938 -23.050781 2.84375 -25.679688 2.84375 -28.921875 C 2.84375 -32.566406 4.171875 -35.441406 6.828125 -37.546875 C 9.492188 -39.660156 13.128906 -40.71875 17.734375 -40.71875 C 20.890625 -40.71875 23.625 -40.175781 25.9375 -39.09375 C 28.257812 -38.007812 30.054688 -36.488281 31.328125 -34.53125 C 32.609375 -32.570312 33.25 -30.242188 33.25 -27.546875 L 24.515625 -27.546875 C 24.515625 -29.328125 23.925781 -30.734375 22.75 -31.765625 C 21.570312 -32.796875 19.9375 -33.3125 17.84375 -33.3125 C 15.945312 -33.3125 14.445312 -32.9375 13.34375 -32.1875 C 12.238281 -31.445312 11.6875 -30.410156 11.6875 -29.078125 C 11.6875 -27.867188 12.296875 -26.84375 13.515625 -26 C 14.734375 -25.164062 16.863281 -24.390625 19.90625 -23.671875 C 24.882812 -22.492188 28.472656 -20.914062 30.671875 -18.9375 C 32.878906 -16.957031 33.984375 -14.390625 33.984375 -11.234375 C 33.984375 -7.472656 32.625 -4.523438 29.90625 -2.390625 C 27.1875 -0.265625 23.453125 0.796875 18.703125 0.796875 Z M 18.703125 0.796875 "/></g></g><g style="fill:#0d1164;fill-opacity:1;"><g transform="translate(217.382955, 61.293119)"><path style="stroke:none" d="M 14.375 0 L 14.375 -31.421875 L 1.703125 -31.421875 L 1.703125 -39.921875 L 36.09375 -39.921875 L 36.09375 -31.421875 L 23.4375 -31.421875 L 23.4375 0 Z M 14.375 0 "/></g></g></g></g></g></svg>