<svg id="Слой_1" enable-background="new 0 0 512 512" height="512" viewBox="0 0 512 512" width="512" xmlns="http://www.w3.org/2000/svg"><g><path d="m256.01 512c141.158 0 255.985-114.846 255.985-256.005s-114.827-255.995-255.985-255.995c-141.159 0-256.005 114.837-256.005 255.995s114.846 256.005 256.005 256.005zm-8.25-470.352c11.807-.459 20.33 8.269 20.702 19.314l6.158 176.971 65.839-52.595c8.66-6.92 21.249-5.483 28.13 3.147 6.901 8.64 5.493 21.23-3.147 28.13l-96.96 77.45c-3.616 2.893-8.034 4.379-12.491 4.379-2.835 0-5.689-.606-8.367-1.828-6.881-3.167-11.377-9.93-11.631-17.496l-7.526-216.771c-.392-11.044 8.249-20.32 19.293-20.701z" fill="rgb(0,0,0)"/></g></svg>